<?xml version="1.0" encoding="UTF-8"?>
<svg width="2560px" height="263px" viewBox="0 0 2560 263" version="1.1" xmlns="http://www.w3.org/2000/svg" xmlns:xlink="http://www.w3.org/1999/xlink">
    <!-- Generator: Sketch 49.3 (51167) - http://www.bohemiancoding.com/sketch -->
    <title>ITSMART</title>
    <desc>Created with Sketch.</desc>
    <defs>
        <rect id="path-1" x="-179" y="9481" width="2919" height="1726"></rect>
    </defs>
    <g id="ios&amp;android&amp;web" stroke="none" stroke-width="1" fill="none" fill-rule="evenodd">
        <g id="ITSMART" transform="translate(0.000000, -9474.000000)">
            <path d="M-1954,9524 L-1954,8667.73921 L249.034264,8083.00326 C882.01072,7914.99891 1661.81808,7914.99891 2294.79454,8083.00326 L4498,8667.73921 L4498,9524 L2294.79454,8939.23782 C1661.81808,8771.23346 882.01072,8771.2597 249.034264,8939.23782 L-1954,9524 Z" id="Fill-5" fill="#FFFFFF"></path>
            <rect id="Rectangle-8" fill="#FFFFFF" x="-335" y="8463" width="4256" height="1028"></rect>
            <mask id="mask-2" fill="white">
                <use xlink:href="#path-1"></use>
            </mask>
            <use id="Mask" fill="#1C2C52" xlink:href="#path-1"></use>
            <path d="M-884,9910 L-884,9394.16708 L666.523651,9041.90752 C1112.02056,8940.69749 1660.85894,8940.69749 2106.35586,9041.90752 L3657,9394.16708 L3657,9910 L2106.35586,9557.72463 C1660.85894,9456.51461 1112.02056,9456.53041 666.523651,9557.72463 L-884,9910 Z" id="Fill-5" fill="#FFFFFF" mask="url(#mask-2)"></path>
            <g id="Map" opacity="0.751019022" style="mix-blend-mode: luminosity;" transform="translate(60.000000, 8296.000000)" fill="#7DCCB4" fill-rule="nonzero">
                <g id="Group" opacity="0.1">
                    <g transform="translate(605.571505, 730.077831)" id="Shape">
                        <path d="M306.417534,197.36048 C306.417534,195.351306 305.997306,193.108507 305.594588,190.865708 L61.2582046,435.374614 L59.3117313,444.106345 C56.8837467,444.106345 56.7670167,442.216903 55.7485471,440.882321 L50.6561995,445.978264 C51.5666938,448.600704 53.8283381,451.853931 53.8283381,453.582755 C53.8283381,456.681205 50.370211,458.430472 48.8264563,461.169724 L305.442839,204.372147 C305.898086,202.202356 306.417534,199.831063 306.417534,197.36048 Z"></path>
                        <path d="M122.089142,411.451423 C122.82746,411.451423 123.428619,411.658766 123.991842,411.927434 L126.612431,409.304995 C126.186366,409.532779 125.739874,409.710918 125.322564,409.710918 C123.548268,409.710918 121.277868,405.572837 120.434494,402.12979 L50.627017,472.637786 C51.5521025,476.010746 53.1162849,479.538482 53.1162849,482.254371 C53.1162849,482.873477 53.1162849,483.422496 53.1162849,484.140893 L123.142631,413.425554 C122.900416,412.934942 122.089142,412.312915 122.089142,411.451423 Z"></path>
                        <path d="M104.77516,443.78511 L56.7816079,491.80379 C57.7913227,492.741209 58.5617409,493.958979 58.5617409,495.979835 C58.5617409,497.454592 57.5666174,498.955632 56.8253817,500.217206 C57.5636991,500.7195 58.06272,501.210112 58.8156287,501.461259 C58.5617409,503.692377 54.0880624,503.461672 54.0880624,505.69279 C54.0880624,505.958538 54.5141271,506.434549 55.0160662,506.931002 L111.317879,450.586515 C108.507603,449.260694 105.344219,448.069207 104.77516,443.78511 Z"></path>
                        <path d="M91.2023759,491.465033 C91.2023759,486.748731 92.4543055,483.253118 95.4367578,480.245197 C97.6838109,478.011159 101.667223,479.51804 103.409419,476.022427 C104.483335,473.692019 104.410379,471.373291 105.014457,469.513053 L61.4975012,513.057815 C63.1988414,514.158773 65.3291645,514.906372 68.5246491,514.906372 C68.7114171,515.855474 69.0499342,517.2251 70.0625672,517.847126 L92.5943815,495.296482 C91.8122903,494.189684 91.2023759,492.767492 91.2023759,491.465033 Z"></path>
                        <path d="M115.455958,459.058339 L109.348059,465.176391 C111.86651,463.625706 114.495854,462.16555 115.455958,459.058339 Z"></path>
                        <path d="M98.220769,502.287707 L78.5838595,521.938482 C80.5040685,522.864221 83.1217395,523.194216 85.2170435,523.88925 C86.4514636,524.271811 87.1109883,525.188789 87.6100092,526.260543 L101.241159,512.613928 C99.9950655,509.936003 99.3530503,505.716153 98.220769,502.287707 Z"></path>
                        <path d="M94.6167293,531.178347 C96.382271,531.178347 98.0019002,531.178347 99.919191,531.178347 C100.675018,531.178347 101.667223,531.178347 102.411377,531.178347 C103.660388,531.178347 103.412337,531.178347 105.163288,531.178347 C106.482337,531.178347 109.193392,529.382356 111.96573,528.027331 L116.62034,523.293507 C113.576605,521.91512 110.611662,520.13373 107.813059,518.361101 L94.6167293,531.178347 Z"></path>
                    </g>
                </g>
            </g>
        </g>
    </g>
</svg>